<svg xmlns="http://www.w3.org/2000/svg" width="144" height="30" viewBox="0 0 144 30">
  <g id="menu-Logo" transform="translate(-1071 1575)">
    <g id="グループ_75" data-name="グループ 75">
      <rect id="長方形_19" data-name="長方形 19" width="30" height="30" transform="translate(1071 -1575)" fill="#42475a"/>
      <rect id="長方形_23" data-name="長方形 23" width="22" height="22" transform="translate(1075 -1571)" fill="#fff"/>
      <line id="線_1" data-name="線 1" x2="12" transform="translate(1074 -1555)" fill="none" stroke="#42475a" stroke-width="2"/>
      <line id="線_2" data-name="線 2" x2="12" transform="translate(1086 -1565)" fill="none" stroke="#42475a" stroke-width="2"/>
    </g>
    <g id="グループ_76" data-name="グループ 76" transform="translate(-1)">
      <rect id="長方形_20" data-name="長方形 20" width="30" height="30" transform="translate(1110 -1575)" fill="#42475a"/>
      <rect id="長方形_24" data-name="長方形 24" width="22" height="22" transform="translate(1114 -1571)" fill="#fff"/>
      <line id="線_3" data-name="線 3" y2="12.015" transform="translate(1125 -1559.507)" fill="none" stroke="#42475a" stroke-width="2"/>
      <path id="パス_13" data-name="パス 13" d="M0,0H22V22Z" transform="translate(1118 -1575)" fill="#42475a"/>
    </g>
    <g id="グループ_78" data-name="グループ 78" transform="translate(-1)">
      <g id="長方形_22" data-name="長方形 22" transform="translate(1186 -1575)" fill="#42475a" stroke="#42475a" stroke-width="1">
        <rect width="30" height="30" stroke="none"/>
        <rect x="0.5" y="0.5" width="29" height="29" fill="none"/>
      </g>
      <rect id="長方形_27" data-name="長方形 27" width="22" height="22" transform="translate(1190 -1571)" fill="#fff"/>
      <line id="線_7" data-name="線 7" x1="24" transform="translate(1189 -1555)" fill="none" stroke="#42475a" stroke-width="2"/>
    </g>
    <g id="グループ_77" data-name="グループ 77">
      <rect id="長方形_21" data-name="長方形 21" width="30" height="30" transform="translate(1147 -1575)" fill="#42475a"/>
      <rect id="長方形_26" data-name="長方形 26" width="22" height="22" transform="translate(1151 -1571)" fill="#fff"/>
      <line id="線_6" data-name="線 6" y2="13" transform="translate(1166 -1560)" fill="none" stroke="#42475a" stroke-width="2"/>
      <line id="線_18" data-name="線 18" y2="13" transform="translate(1158 -1560)" fill="none" stroke="#42475a" stroke-width="2"/>
    </g>
  </g>
</svg>
